# xmcd
#
# Track frame offsets:
#	197
#	10622
#	20850
#	37105
#	50797
#	66207
#	83162
#	92722
#	103555
#	117802
#	134760
#	147800
#	161477
#
# Disc length: 2287 seconds
#
# Revision: 0
# Processed by: cddbd v1.5.1PL0 Copyright (c) Steve Scherf et al.
# Submitted via: dBpowerAMP V4.0
#
DISCID=b208ed0d
DTITLE=Charlie Waller and Country Gentlemen - New Horizon
DYEAR=1992
DGENRE=Bluegrass
TTITLE0=Foggy, Foggy Dew
TTITLE1=Fickle Wind
TTITLE2=Even Now
TTITLE3=Somewhere In Kansas
TTITLE4=Trouble Is Your Child
TTITLE5=Waltz Of The Angels
TTITLE6=Frankie and Johnnie
TTITLE7=Cumberland River
TTITLE8=Gonna Be Raining When I Die
TTITLE9=Room At The Top Of The Stairs
TTITLE10=Limehouse Blues
TTITLE11=New Freedom Bell
TTITLE12=Parents' Prayer
EXTD=
EXTT0=
EXTT1=
EXTT2=
EXTT3=
EXTT4=
EXTT5=
EXTT6=
EXTT7=
EXTT8=
EXTT9=
EXTT10=
EXTT11=
EXTT12=
PLAYORDER=
